<svg width="307" height="203" viewBox="0 0 307 203" fill="none" xmlns="http://www.w3.org/2000/svg">
<path d="M10.2588 98.6941C7.18432 98.6941 4.8 98.098 3.10588 96.9059C1.47451 95.7137 0.658824 94.1137 0.658824 92.1059C0.658824 90.349 1.2549 89 2.44706 88.0588C3.70196 87.1176 5.1451 86.6471 6.77647 86.6471C8.40785 86.6471 9.85098 87.0235 11.1059 87.7765C12.3608 88.4667 13.5216 89.6902 14.5882 91.4471L16.2824 94.3647C16.5961 94.8039 16.9726 95.0235 17.4118 95.0235C17.9137 95.0235 18.2588 94.7412 18.4471 94.1765C18.8235 92.9216 19.0745 91.102 19.2 88.7176C19.3882 86.2706 19.4824 83.3216 19.4824 79.8706C19.4824 75.9176 19.3882 70.8353 19.2 64.6235C19.0118 58.4117 18.8235 50.7568 18.6353 41.6588C18.6353 38.9608 17.6314 37.2666 15.6235 36.5764L13.4588 35.8235V34.8823H38.1177V35.8235L36.0471 36.5764C34.9177 37.0157 34.1333 37.6117 33.6941 38.3647C33.3177 39.0549 33.1294 40.0588 33.1294 41.3764V60.0117C33.1294 66.1608 32.8471 71.2431 32.2824 75.2588C31.7177 79.2745 30.8079 82.7569 29.553 85.7059C27.9843 89.9098 25.4118 93.1412 21.8353 95.4C18.3216 97.5961 14.4628 98.6941 10.2588 98.6941ZM63.378 98.4118C58.6093 98.4118 54.4682 97.4392 50.9544 95.4941C47.4407 93.4863 44.7113 90.6627 42.7662 87.0235C40.8838 83.3843 39.9427 79.1176 39.9427 74.2235C39.9427 69.3294 40.9466 65.0941 42.9544 61.5176C45.025 57.9412 47.8172 55.1804 51.3309 53.2353C54.9074 51.2902 58.9231 50.3176 63.378 50.3176C67.8329 50.3176 71.8172 51.2902 75.3309 53.2353C78.8446 55.1176 81.6054 57.847 83.6133 61.4235C85.6839 65 86.7192 69.2667 86.7192 74.2235C86.7192 79.1804 85.7466 83.4784 83.8015 87.1176C81.9191 90.6941 79.2211 93.4863 75.7074 95.4941C72.2564 97.4392 68.1466 98.4118 63.378 98.4118ZM63.378 96.5294C65.574 96.5294 67.3309 95.902 68.6486 94.6471C69.9662 93.3922 70.9074 91.1647 71.4721 87.9647C72.0995 84.7647 72.4133 80.2471 72.4133 74.4118C72.4133 68.5137 72.0995 63.9647 71.4721 60.7647C70.9074 57.5647 69.9662 55.3372 68.6486 54.0823C67.3309 52.8274 65.574 52.2 63.378 52.2C61.1819 52.2 59.3937 52.8274 58.0133 54.0823C56.6956 55.3372 55.7231 57.5647 55.0956 60.7647C54.5309 63.9647 54.2486 68.5137 54.2486 74.4118C54.2486 80.2471 54.5309 84.7647 55.0956 87.9647C55.7231 91.1647 56.6956 93.3922 58.0133 94.6471C59.3937 95.902 61.1819 96.5294 63.378 96.5294ZM90.7677 97V96.0588L91.8971 95.6824C94.1559 94.9294 95.2853 93.3608 95.2853 90.9765V40.7176C95.2853 39.4 95.0657 38.4274 94.6265 37.8C94.1873 37.1725 93.3402 36.7019 92.0853 36.3882L90.6736 36.0117V35.0706L107.238 31.0235L108.744 31.8706L108.368 45.1412V56.9059C110.564 55.0863 112.917 53.549 115.427 52.2941C117.999 50.9765 120.823 50.3176 123.897 50.3176C127.976 50.3176 131.207 51.4784 133.591 53.8C136.038 56.1216 137.262 59.698 137.262 64.5294V91.0706C137.262 92.3255 137.513 93.3294 138.015 94.0824C138.517 94.8353 139.395 95.4 140.65 95.7765L141.403 96.0588V97H119.379V96.0588L120.509 95.7765C122.768 95.0235 123.897 93.4235 123.897 90.9765V61.4235C123.897 58.9137 123.458 57.1882 122.579 56.247C121.764 55.3059 120.289 54.8353 118.156 54.8353C116.776 54.8353 115.27 55.1176 113.638 55.6823C112.007 56.1843 110.344 57.0941 108.65 58.4117V91.1647C108.65 93.6118 109.779 95.1804 112.038 95.8706L112.791 96.0588V97H90.7677ZM145.081 97V96.0588L146.399 95.6824C148.595 95.0549 149.693 93.5176 149.693 91.0706V61.6117C149.693 60.2314 149.473 59.2274 149.034 58.6C148.595 57.9098 147.748 57.4392 146.493 57.1882L145.081 56.8117V55.8706L161.175 50.4117L162.116 51.3529L162.869 57C165.065 55.0549 167.544 53.4549 170.304 52.2C173.065 50.9451 175.795 50.3176 178.493 50.3176C182.634 50.3176 185.803 51.447 187.999 53.7059C190.257 55.9647 191.387 59.4157 191.387 64.0588V91.1647C191.387 93.6118 192.579 95.149 194.963 95.7765L195.81 96.0588V97H173.599V96.0588L174.822 95.6824C177.018 94.9922 178.116 93.4549 178.116 91.0706V61.047C178.116 57.0314 176.108 55.0235 172.093 55.0235C169.332 55.0235 166.32 56.4039 163.057 59.1647V91.1647C163.057 93.6118 164.155 95.149 166.352 95.7765L167.199 96.0588V97H145.081ZM199.493 97V96.0588L200.81 95.6824C203.006 95.0549 204.104 93.5176 204.104 91.0706V61.6117C204.104 60.2314 203.885 59.2274 203.446 58.6C203.006 57.9098 202.159 57.4392 200.904 57.1882L199.493 56.8117V55.8706L215.587 50.4117L216.528 51.3529L217.281 57C219.477 55.0549 221.955 53.4549 224.716 52.2C227.477 50.9451 230.206 50.3176 232.905 50.3176C237.046 50.3176 240.214 51.447 242.41 53.7059C244.669 55.9647 245.799 59.4157 245.799 64.0588V91.1647C245.799 93.6118 246.991 95.149 249.375 95.7765L250.222 96.0588V97H228.01V96.0588L229.234 95.6824C231.43 94.9922 232.528 93.4549 232.528 91.0706V61.047C232.528 57.0314 230.52 55.0235 226.504 55.0235C223.744 55.0235 220.732 56.4039 217.469 59.1647V91.1647C217.469 93.6118 218.567 95.149 220.763 95.7765L221.61 96.0588V97H199.493ZM259.714 119.588C257.204 119.588 255.196 118.961 253.691 117.706C252.247 116.451 251.526 114.851 251.526 112.906C251.526 111.149 252.153 109.737 253.408 108.671C254.663 107.604 256.075 107.071 257.643 107.071C259.212 107.071 260.53 107.384 261.596 108.012C262.663 108.702 263.604 109.675 264.42 110.929L265.079 111.682C266.459 113.565 267.84 113.533 269.22 111.588C269.785 110.647 270.412 109.392 271.102 107.824C271.855 106.318 272.702 104.278 273.643 101.706L255.385 58.0353C254.945 56.8431 254.475 55.9019 253.973 55.2117C253.471 54.4588 252.655 53.8314 251.526 53.3294L249.832 52.6706V51.7294H273.267V52.5765L271.385 53.3294C270.004 53.7686 269.283 54.4902 269.22 55.4941C269.22 56.4353 269.471 57.6274 269.973 59.0706L279.761 84.4823L289.079 58.7882C289.581 57.3451 289.769 56.1529 289.643 55.2117C289.518 54.2078 288.734 53.5176 287.291 53.1412L285.314 52.6706V51.7294H298.396V52.6706L296.326 53.3294C294.883 53.7686 293.879 54.3961 293.314 55.2117C292.749 56.0274 292.216 57.1568 291.714 58.6L276.561 99.9176C274.114 106.506 271.667 111.431 269.22 114.694C266.773 117.957 263.604 119.588 259.714 119.588Z" fill="black"/>
<path d="M22.2118 180.968L5.55294 124.968C5.11373 123.525 4.64314 122.49 4.14118 121.862C3.63922 121.172 2.76079 120.545 1.50588 119.98L0.376471 119.509V118.568H25.3177V119.509L23.3412 120.262C21.898 120.827 20.9255 121.517 20.4235 122.333C19.9216 123.149 19.8902 124.278 20.3294 125.721L30.5882 164.874L41.6941 132.027L39.5294 125.345C39.0902 124.027 38.6824 123.023 38.3059 122.333C37.9294 121.643 37.302 121.078 36.4235 120.639L34.353 119.509V118.568H57.9765V119.509L55.0588 120.639C53.8039 121.078 53.0824 121.737 52.8941 122.615C52.7686 123.431 52.9255 124.498 53.3647 125.815L65.3177 165.815L76.6118 126.568C77.051 125.062 77.2079 123.745 77.0824 122.615C76.9569 121.486 76.1726 120.67 74.7294 120.168L72.753 119.509V118.568H85.8353V119.509L83.3883 120.45C82.1334 120.89 81.2549 121.58 80.753 122.521C80.251 123.462 79.8118 124.623 79.4353 126.003L63.8118 180.968H57.3177L43.2 136.733L28.7059 180.968H22.2118ZM103.36 182.098C98.591 182.098 94.4498 181.125 90.9361 179.18C87.4223 177.172 84.6929 174.349 82.7478 170.709C80.8655 167.07 79.9243 162.803 79.9243 157.909C79.9243 153.015 80.9282 148.78 82.9361 145.203C85.0067 141.627 87.7988 138.866 91.3125 136.921C94.889 134.976 98.9047 134.003 103.36 134.003C107.815 134.003 111.799 134.976 115.313 136.921C118.826 138.803 121.587 141.533 123.595 145.109C125.665 148.686 126.701 152.952 126.701 157.909C126.701 162.866 125.728 167.164 123.783 170.803C121.901 174.38 119.203 177.172 115.689 179.18C112.238 181.125 108.128 182.098 103.36 182.098ZM103.36 180.215C105.556 180.215 107.313 179.588 108.63 178.333C109.948 177.078 110.889 174.85 111.454 171.65C112.081 168.45 112.395 163.933 112.395 158.098C112.395 152.2 112.081 147.65 111.454 144.45C110.889 141.25 109.948 139.023 108.63 137.768C107.313 136.513 105.556 135.886 103.36 135.886C101.164 135.886 99.3753 136.513 97.9949 137.768C96.6772 139.023 95.7047 141.25 95.0772 144.45C94.5125 147.65 94.2302 152.2 94.2302 158.098C94.2302 163.933 94.5125 168.45 95.0772 171.65C95.7047 174.85 96.6772 177.078 97.9949 178.333C99.3753 179.588 101.164 180.215 103.36 180.215ZM130.835 180.686V179.745L132.152 179.368C134.348 178.741 135.446 177.203 135.446 174.756V145.298C135.446 143.917 135.227 142.913 134.788 142.286C134.348 141.596 133.501 141.125 132.246 140.874L130.835 140.498V139.556L146.929 134.098L147.87 135.039L148.623 140.686C150.819 138.741 153.297 137.141 156.058 135.886C158.819 134.631 161.548 134.003 164.246 134.003C168.388 134.003 171.556 135.133 173.752 137.392C176.011 139.65 177.141 143.101 177.141 147.745V174.85C177.141 177.298 178.333 178.835 180.717 179.462L181.564 179.745V180.686H159.352V179.745L160.576 179.368C162.772 178.678 163.87 177.141 163.87 174.756V144.733C163.87 140.717 161.862 138.709 157.846 138.709C155.086 138.709 152.074 140.09 148.811 142.85V174.85C148.811 177.298 149.909 178.835 152.105 179.462L152.952 179.745V180.686H130.835ZM205.764 164.403C201.435 164.403 197.764 163.682 194.752 162.239V165.439C194.752 167.384 195.725 168.545 197.67 168.921L215.364 172.215C218.313 172.78 220.98 173.533 223.364 174.474C225.748 175.352 227.662 176.639 229.105 178.333C230.548 179.964 231.27 182.223 231.27 185.109C231.27 188.184 230.266 191.007 228.258 193.58C226.25 196.215 223.27 198.317 219.317 199.886C215.427 201.517 210.564 202.333 204.729 202.333C199.709 202.333 195.725 201.8 192.776 200.733C189.827 199.729 187.725 198.411 186.47 196.78C185.278 195.149 184.682 193.423 184.682 191.603C184.682 189.345 185.435 187.054 186.941 184.733C188.509 182.474 190.423 180.654 192.682 179.274C190.737 178.521 189.325 177.549 188.446 176.356C187.568 175.164 187.129 173.878 187.129 172.498C187.129 171.243 187.442 170.082 188.07 169.015C188.76 167.886 189.576 166.756 190.517 165.627L193.623 161.674C189.042 159.039 186.752 154.898 186.752 149.25C186.752 144.733 188.352 141.062 191.552 138.239C194.815 135.415 199.584 134.003 205.858 134.003C209.058 134.003 211.85 134.38 214.235 135.133C216.682 135.886 218.69 136.952 220.258 138.333C222.266 138.019 224.148 137.517 225.905 136.827C227.725 136.074 229.356 135.07 230.799 133.815L232.117 134.756V139.556H221.482C223.741 142.066 224.87 145.298 224.87 149.25C224.87 153.643 223.239 157.282 219.976 160.168C216.776 162.992 212.039 164.403 205.764 164.403ZM205.67 162.521C208.18 162.521 209.999 161.486 211.129 159.415C212.321 157.345 212.917 153.894 212.917 149.062C212.917 144.231 212.321 140.843 211.129 138.898C209.999 136.89 208.242 135.886 205.858 135.886C203.537 135.886 201.78 136.921 200.588 138.992C199.395 140.999 198.799 144.419 198.799 149.25C198.799 154.082 199.333 157.501 200.399 159.509C201.529 161.517 203.286 162.521 205.67 162.521ZM191.646 188.592C191.646 192.294 192.776 195.086 195.035 196.968C197.356 198.851 200.995 199.792 205.952 199.792C211.16 199.792 215.082 198.945 217.717 197.251C220.352 195.556 221.67 193.172 221.67 190.098C221.67 188.341 221.011 186.929 219.693 185.862C218.439 184.796 216.274 183.98 213.199 183.415L196.164 180.215C195.662 180.09 195.16 179.964 194.658 179.839C193.78 181.094 193.058 182.505 192.493 184.074C191.929 185.705 191.646 187.211 191.646 188.592Z" fill="black"/>
</svg>
